<?xml version="1.0" encoding="utf-8"?>
<!-- Generator: Adobe Illustrator 24.2.3, SVG Export Plug-In . SVG Version: 6.00 Build 0)  -->
<svg version="1.1" id="Layer_1" xmlns="http://www.w3.org/2000/svg" xmlns:xlink="http://www.w3.org/1999/xlink" x="0px" y="0px"
	 viewBox="0 0 25 25" style="enable-background:new 0 0 25 25;" xml:space="preserve">
<style type="text/css">
	.st0{fill:#FFC000;}
	.st1{fill:#EE8B00;}
	.st2{opacity:0.6;fill:#FFD875;}
	.st3{fill:#8E8E8E;}
	.st4{fill:#CECECE;}
	.st5{fill:#DF040B;}
	.st6{fill:#E24D59;}
	.st7{fill:#FDD700;}
	.st8{fill:#4BA82C;}
	.st9{fill:#89D36C;}
	.st10{fill:#008F30;}
	.st11{fill:#39B55F;}
	.st12{fill:#20A19A;}
	.st13{fill:#4FB7AF;}
	.st14{fill:#009BDD;}
	.st15{fill:#3EBAE5;}
	.st16{fill:#1B57C1;}
	.st17{fill:#4983D6;}
	.st18{fill:#E22DA1;}
	.st19{fill:#BF027C;}
</style>
<g>
	<path class="st7" d="M19.1,7.4c0,0.5-0.4,1-1,1h-12c-0.5,0-1-0.4-1-1v-2c0-0.5,0.4-1,1-1h12c0.5,0,1,0.4,1,1V7.4z"/>
	<path class="st1" d="M5.1,5.7v1.7c0,0.5,0.4,1,1,1h12c0.5,0,1-0.4,1-1V5.7H5.1z"/>
</g>
<g>
	<path class="st0" d="M20.9,19.3V8.9c0-1.1-0.9-2-2-2h-14c-1.1,0-2,0.9-2,2v10.5c0,1.1,0.9,2,2,2h14C20.1,21.3,20.9,20.4,20.9,19.3z
		"/>
	<path class="st7" d="M20.9,19.3V8.9c0-1.1-0.9-2-2-2h-14c-1.1,0-2,0.9-2,2v10.5c0,1.1,0.9,2,2,2h14C20.1,21.3,20.9,20.4,20.9,19.3z
		"/>
	<rect x="16.2" y="6.9" class="st2" width="2.5" height="14.4"/>
</g>
<path class="st1" d="M20.9,19.3v-0.2H3v0.2c0,1.1,0.9,2,2,2h14C20.1,21.3,20.9,20.4,20.9,19.3z"/>
</svg>
