<?xml version="1.0" encoding="utf-8"?>
<!-- Generator: Adobe Illustrator 24.2.3, SVG Export Plug-In . SVG Version: 6.00 Build 0)  -->
<svg version="1.1" id="Layer_1" xmlns="http://www.w3.org/2000/svg" xmlns:xlink="http://www.w3.org/1999/xlink" x="0px" y="0px"
	 viewBox="0 0 25 25" style="enable-background:new 0 0 25 25;" xml:space="preserve">
<style type="text/css">
	.st0{fill:#FFC000;}
	.st1{fill:#EE8B00;}
	.st2{opacity:0.6;fill:#FFD875;}
	.st3{fill:#8E8E8E;}
	.st4{fill:#CECECE;}
	.st5{fill:#DF040B;}
	.st6{fill:#E24D59;}
	.st7{fill:#FDD700;}
	.st8{fill:#4BA82C;}
	.st9{fill:#89D36C;}
	.st10{fill:#008F30;}
	.st11{fill:#39B55F;}
	.st12{fill:#20A19A;}
	.st13{fill:#4FB7AF;}
	.st14{fill:#009BDD;}
	.st15{fill:#3EBAE5;}
	.st16{fill:#1B57C1;}
	.st17{fill:#4983D6;}
	.st18{fill:#E22DA1;}
	.st19{fill:#BF027C;}
</style>
<g>
	<g>
		<path class="st18" d="M17.5,20c-0.5,0-1-0.4-1-1V7c0-0.5,0.4-1,1-1h2c0.5,0,1,0.4,1,1v12c0,0.5-0.4,1-1,1H17.5z"/>
		<path class="st19" d="M19.1,6h-1.7c-0.5,0-1,0.4-1,1v12c0,0.5,0.4,1,1,1h1.7V6z"/>
	</g>
	<g>
		<path class="st0" d="M5.5,21.9h10.5c1.1,0,2-0.9,2-2v-14c0-1.1-0.9-2-2-2H5.5c-1.1,0-2,0.9-2,2v14C3.5,21,4.4,21.9,5.5,21.9z"/>
		<path class="st18" d="M5.5,21.9h10.5c1.1,0,2-0.9,2-2v-14c0-1.1-0.9-2-2-2H5.5c-1.1,0-2,0.9-2,2v14C3.5,21,4.4,21.9,5.5,21.9z"/>
	</g>
	<path class="st19" d="M5.5,21.9h0.2v-18H5.5c-1.1,0-2,0.9-2,2v14C3.5,21,4.4,21.9,5.5,21.9z"/>
</g>
</svg>
