<?xml version="1.0" encoding="utf-8"?>
<!-- Generator: Adobe Illustrator 28.3.0, SVG Export Plug-In . SVG Version: 6.00 Build 0)  -->
<svg version="1.1" id="Layer_1" xmlns="http://www.w3.org/2000/svg" xmlns:xlink="http://www.w3.org/1999/xlink" x="0px" y="0px"
	 viewBox="0 0 25 25" style="enable-background:new 0 0 25 25;" xml:space="preserve">
<style type="text/css">
	.st0{fill:#D90080;}
	.st1{fill:#AF0573;}
	.st2{fill-rule:evenodd;clip-rule:evenodd;fill:#7F065A;}
	.st3{fill:#900580;}
	.st4{fill:#77056F;}
	.st5{fill-rule:evenodd;clip-rule:evenodd;fill:#5B0659;}
	.st6{fill:#002A84;}
	.st7{fill:#183C7C;}
	.st8{fill-rule:evenodd;clip-rule:evenodd;fill:#264570;}
	.st9{fill:#20A19A;}
	.st10{fill:#19847C;}
	.st11{fill-rule:evenodd;clip-rule:evenodd;fill:#13635B;}
	.st12{fill:#FDD700;}
	.st13{fill:#B59704;}
	.st14{fill-rule:evenodd;clip-rule:evenodd;fill:#896F03;}
	.st15{fill:#DF040B;}
	.st16{fill:#AD0512;}
	.st17{fill-rule:evenodd;clip-rule:evenodd;fill:#870616;}
</style>
<g>
	<path class="st0" d="M23.6,14.5c0,0.8-1.3,1.5-3.5,1.9c-2,0.4-4.6,0.6-7.6,0.6s-5.7-0.2-7.6-0.6c-2.2-0.5-3.5-1.1-3.5-1.9
		c0-1.3,0-2.7,0-3.9c7.6,2.8,15,2.8,22.2,0C23.6,11.8,23.6,13.2,23.6,14.5L23.6,14.5z"/>
	<path class="st1" d="M20.1,8.6c-2-0.4-4.6-0.6-7.6-0.6S6.8,8.2,4.9,8.6c-2.2,0.5-3.5,1.1-3.5,1.9s1.3,1.5,3.5,1.9
		c2,0.4,4.6,0.6,7.6,0.6s5.7-0.2,7.6-0.6c2.1-0.4,3.5-1.1,3.5-1.9S22.3,9.1,20.1,8.6z M20,11.4c-1.9,0.4-4.5,0.6-7.5,0.6
		c-2.9,0-5.6-0.2-7.5-0.6c-1.7-0.4-2.8-0.7-2.8-1.1c0-0.4,1.1-0.7,2.8-1.1c1.9-0.4,4.5-0.6,7.5-0.6c2.9,0,5.6,0.2,7.5,0.6
		c1.7,0.3,2.8,0.7,2.8,1.1C22.8,10.7,21.7,11,20,11.4z"/>
	<path class="st2" d="M20,9.2c-1.9-0.4-4.5-0.6-7.5-0.6C9.6,8.6,6.9,8.8,5,9.2C3.3,9.6,2.2,10,2.2,10.3c0,0.4,1.1,0.7,2.8,1.1
		c0.7,0.1,1.5,0.2,2.4,0.3c1.5-0.1,3.2-0.2,5.1-0.2s3.6,0.1,5.2,0.3c0.8-0.2,1.6-0.3,2.3-0.4c1.7-0.3,2.8-0.7,2.8-1.1
		C22.8,10,21.7,9.6,20,9.2z M9.8,10.8c-0.4,0-0.6-0.3-0.6-0.6c0-0.3,0.3-0.6,0.6-0.6s0.6,0.3,0.6,0.6C10.3,10.5,10.1,10.8,9.8,10.8z
		 M12.5,10.6c-0.3,0-0.6-0.3-0.6-0.6s0.3-0.6,0.6-0.6s0.6,0.3,0.6,0.6C13.1,10.4,12.8,10.6,12.5,10.6z M15.2,10.8
		c-0.3,0-0.6-0.3-0.6-0.6c0-0.3,0.3-0.6,0.6-0.6s0.6,0.3,0.6,0.6C15.8,10.5,15.6,10.8,15.2,10.8z"/>
</g>
</svg>
